<?xml version="1.0" standalone="no"?>
<!DOCTYPE svg PUBLIC "-//W3C//DTD SVG 20010904//EN"
 "http://www.w3.org/TR/2001/REC-SVG-20010904/DTD/svg10.dtd">
<svg version="1.0" xmlns="http://www.w3.org/2000/svg"
 width="66.000000pt" height="38.000000pt" viewBox="0 0 66.000000 38.000000"
 preserveAspectRatio="xMidYMid meet">

<g transform="translate(0.000000,38.000000) scale(0.100000,-0.100000)"
fill="#000000" stroke="none">
<path d="M300 300 c0 -18 -7 -20 -58 -20 l-58 0 -22 -45 c-15 -31 -28 -45 -42
-45 -17 0 -20 -7 -20 -50 l0 -50 38 0 c26 0 41 -6 50 -20 16 -26 58 -26 72 0
9 18 21 20 98 20 76 0 89 -2 100 -20 16 -26 48 -26 64 0 7 11 23 20 35 20 13
0 23 4 23 9 0 5 -9 7 -19 4 -13 -3 -24 2 -33 16 -17 28 -63 28 -78 1 -9 -17
-21 -20 -75 -20 l-65 0 0 106 0 105 135 -3 c74 -2 135 0 135 5 0 4 -63 7 -140
7 -133 0 -140 -1 -140 -20z m0 -115 c0 -68 -3 -85 -15 -85 -8 0 -19 9 -25 20
-14 26 -56 26 -72 0 -9 -13 -24 -20 -45 -20 -32 0 -33 2 -33 40 0 32 4 40 18
40 11 0 26 16 40 45 l22 45 55 0 55 0 0 -85z"/>
<path d="M185 220 c-8 -16 -15 -31 -15 -35 0 -3 23 -5 50 -5 l50 0 0 35 c0 33
-2 35 -35 35 -28 0 -37 -5 -50 -30z m75 -5 c0 -22 -4 -25 -40 -25 -39 0 -39 1
-28 25 8 18 19 25 40 25 23 0 28 -4 28 -25z"/>
</g>
</svg>
