<?xml version="1.0" standalone="no"?>
<!DOCTYPE svg PUBLIC "-//W3C//DTD SVG 20010904//EN"
 "http://www.w3.org/TR/2001/REC-SVG-20010904/DTD/svg10.dtd">
<svg version="1.0" xmlns="http://www.w3.org/2000/svg"
 width="400.000000pt" height="300.000000pt" viewBox="0 0 867.000000 1280.000000"
 preserveAspectRatio="xMidYMid meet">
<metadata>
Created by potrace 1.15, written by Peter Selinger 2001-2017
</metadata>
<g transform="translate(0.000000,1280.000000) scale(0.100000,-0.100000)"
fill="#000000" stroke="none">
<path d="M2065 12794 c-500 -81 -835 -470 -837 -974 -1 -226 80 -430 230 -577
61 -61 63 -63 40 -72 -260 -99 -625 -353 -927 -646 -267 -259 -429 -479 -526
-715 -36 -85 -40 -104 -40 -180 0 -73 4 -93 29 -144 61 -126 203 -215 342
-216 56 0 140 26 196 61 62 40 106 89 215 244 345 487 648 740 1114 929 104
42 391 136 416 136 1 0 3 -151 3 -335 0 -260 -3 -336 -12 -339 -241 -70 -507
-215 -722 -395 -439 -367 -702 -830 -771 -1354 -13 -104 -15 -564 -15 -3956 0
-2334 4 -3858 9 -3887 32 -167 126 -288 268 -346 l58 -23 1725 -3 c1930 -3
1813 -7 1927 67 66 42 107 90 147 170 59 116 56 -150 56 4009 0 2600 -3 3854
-10 3920 -53 483 -243 888 -585 1241 -272 281 -562 464 -883 557 -10 3 -12 84
-10 381 2 208 6 377 11 376 4 -2 340 -3 747 -3 l740 0 0 -157 0 -158 1578
-239 c867 -131 1690 -256 1827 -277 138 -21 253 -39 258 -39 4 0 7 567 7 1260
l0 1261 -32 -6 c-25 -4 -1452 -212 -1888 -275 -96 -14 -992 -144 -1310 -191
-151 -22 -312 -45 -357 -51 l-83 -11 0 -173 0 -174 -745 0 -745 0 0 270 0 270
-214 0 -215 0 -6 48 c-10 77 -52 199 -94 270 -123 209 -326 360 -570 424 -75
19 -280 32 -346 22z m210 -519 c83 -22 147 -60 206 -122 195 -206 138 -544
-114 -668 -246 -121 -534 8 -602 270 -39 152 7 308 123 417 108 101 248 139
387 103z"/>
</g>
</svg>
