<?xml version="1.0" standalone="no"?>
<!DOCTYPE svg PUBLIC "-//W3C//DTD SVG 20010904//EN"
 "http://www.w3.org/TR/2001/REC-SVG-20010904/DTD/svg10.dtd">
<svg version="1.0" xmlns="http://www.w3.org/2000/svg"
 width="105.000000pt" height="792.000000pt" viewBox="0 0 105.000000 792.000000"
 preserveAspectRatio="xMidYMid meet">
<metadata>
Created by potrace 1.10, written by Peter Selinger 2001-2011
</metadata>
<g transform="translate(0.000000,792.000000) scale(0.100000,-0.100000)"
fill="#000000" stroke="none">
<path d="M324 7826 c-8 -22 0 -81 11 -81 6 0 11 21 13 48 3 45 -12 65 -24 33z"/>
<path d="M325 7618 c-9 -23 -2 -83 10 -83 14 0 19 75 6 88 -7 7 -12 5 -16 -5z"/>
<path d="M325 7408 c-9 -23 -2 -83 10 -83 14 0 19 75 6 88 -7 7 -12 5 -16 -5z"/>
<path d="M325 7198 c-9 -23 -2 -83 10 -83 14 0 19 75 6 88 -7 7 -12 5 -16 -5z"/>
<path d="M325 6988 c-9 -23 -2 -83 10 -83 14 0 19 75 6 88 -7 7 -12 5 -16 -5z"/>
<path d="M324 6777 c-9 -24 0 -80 14 -85 8 -2 12 10 12 42 0 45 -15 70 -26 43z"/>
<path d="M326 6573 c-3 -3 -6 -26 -6 -50 0 -32 4 -43 15 -43 11 0 15 12 15 44
0 43 -10 63 -24 49z"/>
<path d="M322 6325 c2 -30 8 -55 13 -55 6 0 11 25 13 55 2 45 0 55 -13 55 -13
0 -15 -10 -13 -55z"/>
<path d="M324 6156 c-9 -22 0 -101 11 -99 14 4 19 113 5 113 -6 0 -13 -6 -16
-14z"/>
<path d="M324 5946 c-9 -22 0 -101 11 -99 14 4 19 113 5 113 -6 0 -13 -6 -16
-14z"/>
<path d="M326 5743 c-3 -3 -6 -30 -6 -60 0 -40 4 -53 15 -53 11 0 15 13 15 54
0 51 -9 74 -24 59z"/>
<path d="M325 5528 c-9 -24 -1 -103 10 -103 14 0 19 95 6 108 -7 7 -12 5 -16
-5z"/>
<path d="M326 5323 c-3 -3 -6 -30 -6 -60 0 -40 4 -53 15 -53 11 0 15 13 15 54
0 51 -9 74 -24 59z"/>
<path d="M322 5058 c4 -74 28 -77 28 -4 0 44 -3 56 -16 56 -12 0 -14 -10 -12
-52z"/>
<path d="M324 4886 c-9 -22 0 -91 11 -89 14 4 19 103 5 103 -6 0 -13 -6 -16
-14z"/>
<path d="M325 4678 c-9 -24 -2 -93 10 -93 14 0 19 85 6 98 -7 7 -12 5 -16 -5z"/>
<path d="M324 4467 c-9 -24 0 -80 14 -85 8 -2 12 10 12 42 0 45 -15 70 -26 43z"/>
<path d="M325 4258 c-9 -23 -2 -83 10 -83 14 0 19 75 6 88 -7 7 -12 5 -16 -5z"/>
<path d="M325 4048 c-9 -23 -2 -83 10 -83 14 0 19 75 6 88 -7 7 -12 5 -16 -5z"/>
<path d="M322 3798 c2 -24 8 -43 13 -43 6 0 11 19 13 43 3 33 0 42 -13 42 -13
0 -16 -9 -13 -42z"/>
<path d="M322 3588 c2 -24 8 -43 13 -43 6 0 11 19 13 43 3 33 0 42 -13 42 -13
0 -16 -9 -13 -42z"/>
<path d="M325 3418 c-9 -23 -2 -83 10 -83 14 0 19 75 6 88 -7 7 -12 5 -16 -5z"/>
<path d="M325 3208 c-9 -23 -2 -83 10 -83 14 0 19 75 6 88 -7 7 -12 5 -16 -5z"/>
<path d="M324 2996 c-8 -22 0 -81 11 -81 6 0 11 21 13 48 3 45 -12 65 -24 33z"/>
<path d="M325 2788 c-9 -23 -2 -83 10 -83 14 0 19 75 6 88 -7 7 -12 5 -16 -5z"/>
<path d="M324 2576 c-9 -23 0 -79 14 -84 8 -2 12 11 12 47 0 48 -14 68 -26 37z"/>
<path d="M327 2373 c-4 -3 -7 -26 -7 -50 0 -32 4 -43 15 -43 11 0 15 12 15 50
0 46 -7 60 -23 43z"/>
<path d="M325 2158 c-9 -34 -2 -93 10 -93 13 0 19 95 6 108 -7 7 -12 2 -16
-15z"/>
<path d="M324 1956 c-9 -22 0 -101 11 -99 14 4 19 113 5 113 -6 0 -13 -6 -16
-14z"/>
<path d="M325 1748 c-9 -24 -1 -103 10 -103 14 0 19 95 6 108 -7 7 -12 5 -16
-5z"/>
<path d="M325 1538 c-9 -24 -1 -103 10 -103 14 0 19 95 6 108 -7 7 -12 5 -16
-5z"/>
<path d="M325 1328 c-9 -24 -1 -103 10 -103 14 0 19 95 6 108 -7 7 -12 5 -16
-5z"/>
<path d="M322 1068 c4 -67 22 -65 26 2 2 40 0 50 -13 50 -13 0 -15 -10 -13
-52z"/>
<path d="M327 903 c-4 -3 -7 -28 -7 -55 0 -36 4 -48 15 -48 12 0 15 13 15 55
0 51 -7 65 -23 48z"/>
<path d="M327 693 c-4 -3 -7 -30 -7 -58 0 -58 -6 -70 -27 -53 -11 9 -22 9 -48
0 -25 -10 -39 -10 -59 -1 -50 23 -74 -26 -36 -74 11 -14 20 -29 20 -35 0 -5
13 -28 30 -50 17 -23 30 -50 30 -60 0 -11 11 -39 24 -63 14 -24 36 -68 50 -98
26 -53 27 -54 46 -36 11 10 25 35 30 57 6 21 15 38 21 38 6 0 19 20 30 45 11
24 24 47 29 50 6 3 10 19 10 34 0 16 7 34 15 41 40 33 81 168 45 145 -5 -3
-19 -1 -30 5 -15 8 -29 8 -53 -1 -27 -10 -38 -9 -65 5 -29 15 -32 20 -32 66 0
46 -7 60 -23 43z"/>
</g>
</svg>
