<?xml version="1.0" standalone="no"?>
<!DOCTYPE svg PUBLIC "-//W3C//DTD SVG 20010904//EN"
 "http://www.w3.org/TR/2001/REC-SVG-20010904/DTD/svg10.dtd">
<svg version="1.0" xmlns="http://www.w3.org/2000/svg"
 width="111.000000pt" height="777.000000pt" viewBox="0 0 111.000000 777.000000"
 preserveAspectRatio="xMidYMid meet">
<metadata>
Created by potrace 1.10, written by Peter Selinger 2001-2011
</metadata>
<g transform="translate(0.000000,777.000000) scale(0.100000,-0.100000)"
fill="#000000" stroke="none">
<path d="M507 7583 c-4 -3 -7 -1606 -7 -3562 0 -2157 -4 -3562 -10 -3571 -6
-10 -31 -15 -90 -15 -47 -1 -86 -7 -92 -13 -9 -9 11 -58 86 -207 55 -107 105
-200 113 -207 18 -15 33 4 33 43 0 14 11 36 25 49 14 13 25 31 25 41 0 9 7 22
15 29 8 7 15 25 15 40 0 16 12 39 30 58 16 18 30 39 30 48 0 10 12 33 26 52
l27 34 -22 21 c-19 19 -25 20 -63 10 -24 -6 -47 -8 -53 -3 -5 4 -21 10 -35 12
l-25 3 -3 3565 c-1 1960 -6 3568 -10 3572 -5 5 -11 5 -15 1z"/>
</g>
</svg>
