<?xml version="1.0" standalone="no"?>
<!DOCTYPE svg PUBLIC "-//W3C//DTD SVG 20010904//EN"
 "http://www.w3.org/TR/2001/REC-SVG-20010904/DTD/svg10.dtd">
<svg version="1.0" xmlns="http://www.w3.org/2000/svg"
 width="62.000000pt" height="47.000000pt" viewBox="0 0 62.000000 47.000000"
 preserveAspectRatio="xMidYMid meet">

<g transform="translate(0.000000,47.000000) scale(0.100000,-0.100000)"
fill="#000000" stroke="none">
<path d="M310 421 c0 -5 9 -7 19 -4 16 4 22 -3 32 -36 7 -23 14 -39 16 -37 3
2 -1 22 -8 45 -10 33 -17 41 -36 41 -12 0 -23 -4 -23 -9z"/>
<path d="M322 390 c0 -8 8 -37 18 -65 10 -27 18 -43 18 -35 0 8 -8 38 -18 65
-10 28 -18 43 -18 35z"/>
<path d="M40 383 c0 -5 40 -7 88 -5 l89 3 76 -85 c57 -65 80 -98 92 -138 19
-65 19 -68 -4 -68 -12 0 -21 9 -25 24 -11 46 -79 45 -96 0 -8 -19 -17 -24 -45
-24 -23 0 -35 5 -35 13 0 20 -33 47 -59 47 -14 0 -28 -11 -39 -30 -9 -16 -24
-30 -32 -30 -14 0 1 -11 58 -41 19 -11 27 -9 52 9 36 27 74 28 107 2 32 -25
55 -25 78 0 13 15 31 20 65 20 46 0 46 0 42 30 -4 27 -2 30 24 31 l29 1 -29 7
c-24 5 -31 14 -42 51 -7 24 -11 46 -9 48 2 2 9 -14 16 -37 11 -37 15 -41 43
-40 29 2 30 2 4 6 -23 4 -30 13 -48 69 -13 38 -27 64 -36 64 -8 0 -14 5 -14
12 0 6 -3 9 -6 5 -3 -3 8 -53 25 -110 33 -111 36 -127 23 -127 -5 0 -22 41
-37 92 -18 60 -30 86 -34 74 -5 -14 -20 -2 -75 58 l-67 76 -90 0 c-49 0 -89
-3 -89 -7z"/>
<path d="M90 285 l0 -55 105 0 c58 0 105 4 105 8 0 4 -22 29 -48 55 -46 45
-50 47 -105 47 l-57 0 0 -55z m141 18 c59 -66 61 -63 -40 -63 l-91 0 0 45 0
45 53 0 c45 0 57 -4 78 -27z"/>
<path d="M548 183 c17 -2 32 -8 32 -13 0 -5 -15 -11 -32 -13 -28 -3 -26 -4 11
-5 36 -2 42 1 37 14 -3 9 -6 18 -6 20 0 2 -17 3 -37 2 -37 -1 -37 -1 -5 -5z"/>
</g>
</svg>
