<?xml version="1.0" standalone="no"?>
<!DOCTYPE svg PUBLIC "-//W3C//DTD SVG 20010904//EN"
 "http://www.w3.org/TR/2001/REC-SVG-20010904/DTD/svg10.dtd">
<svg version="1.0" xmlns="http://www.w3.org/2000/svg"
 width="31.000000pt" height="44.000000pt" viewBox="0 0 31.000000 44.000000"
 preserveAspectRatio="xMidYMid meet">

<g transform="translate(0.000000,44.000000) scale(0.100000,-0.100000)"
fill="#000000" stroke="none">
<path d="M27 403 c-4 -3 -7 -88 -7 -187 l0 -181 130 3 130 3 0 140 0 139 -40
0 c-22 0 -40 -4 -40 -10 0 -18 -25 -11 -39 11 -11 19 -10 24 8 42 18 19 21 19
27 4 4 -12 18 -17 45 -17 37 0 39 2 39 30 l0 30 -123 0 c-68 0 -127 -3 -130
-7z m90 -124 c4 -16 11 -19 29 -15 28 7 74 -12 74 -31 0 -14 -12 -13 -58 5 -9
3 -6 -8 7 -34 16 -30 28 -40 53 -44 17 -3 33 -11 36 -17 5 -17 -70 -17 -86 -1
-19 19 -37 -4 -23 -30 15 -28 14 -42 -3 -42 -8 0 -21 17 -29 37 -13 34 -13 40
0 55 20 22 7 44 -13 23 -18 -17 -50 -20 -59 -5 -3 6 5 14 20 20 33 12 42 37
21 53 -11 8 -15 19 -10 30 9 24 35 21 41 -4z"/>
</g>
</svg>
