<?xml version="1.0" standalone="no"?>
<!DOCTYPE svg PUBLIC "-//W3C//DTD SVG 20010904//EN"
 "http://www.w3.org/TR/2001/REC-SVG-20010904/DTD/svg10.dtd">
<svg version="1.0" xmlns="http://www.w3.org/2000/svg"
 width="529.000000pt" height="335.000000pt" viewBox="0 0 529.000000 335.000000"
 preserveAspectRatio="xMidYMid meet">

<g transform="translate(0.000000,335.000000) scale(0.100000,-0.100000)"
fill="#000000" stroke="none">
<path d="M5 3338 c-3 -7 -4 -753 -3 -1658 l3 -1645 2640 0 2640 0 0 1655 0
1655 -2638 3 c-2105 2 -2639 0 -2642 -10z m5265 -1648 l0 -1640 -2625 0 -2625
0 0 1640 0 1640 2625 0 2625 0 0 -1640z"/>
<path d="M35 3308 c-3 -7 -4 -740 -3 -1628 l3 -1615 2610 0 2610 0 0 1625 0
1625 -2608 3 c-2081 2 -2609 0 -2612 -10z m5205 -1618 l0 -1610 -2595 0 -2595
0 0 1610 0 1610 2595 0 2595 0 0 -1610z"/>
</g>
</svg>
