<?xml version="1.0" standalone="no"?>
<!DOCTYPE svg PUBLIC "-//W3C//DTD SVG 20010904//EN"
 "http://www.w3.org/TR/2001/REC-SVG-20010904/DTD/svg10.dtd">
<svg version="1.0" xmlns="http://www.w3.org/2000/svg"
 width="234.000000pt" height="11.000000pt" viewBox="0 0 234.000000 11.000000"
 preserveAspectRatio="xMidYMid meet">

<g transform="translate(0.000000,11.000000) scale(0.100000,-0.100000)"
fill="#000000" stroke="none">
<path d="M98 33 c46 -2 118 -2 160 0 42 1 5 3 -83 3 -88 0 -123 -2 -77 -3z"/>
<path d="M607 33 c84 -2 222 -2 306 0 83 1 15 3 -153 3 -168 0 -236 -2 -153
-3z"/>
<path d="M1358 33 c84 -2 219 -2 300 0 81 1 12 3 -153 3 -165 0 -231 -2 -147
-3z"/>
<path d="M2048 33 c57 -2 147 -2 200 0 53 1 7 3 -103 3 -110 0 -154 -2 -97 -3z"/>
</g>
</svg>
